# This file uses centimeters as units for non-parametric coordinates.

mtllib SpaceButton.mtl
g default
v -0.500000 -0.500000 0.500000
v 0.500000 -0.500000 0.500000
v -0.500000 0.500000 0.500000
v 0.500000 0.500000 0.500000
v -0.500000 0.500000 -0.500000
v 0.500000 0.500000 -0.500000
v -0.500000 -0.500000 -0.500000
v 0.500000 -0.500000 -0.500000
v 0.478137 0.529319 0.477668
v 0.478137 0.529319 -0.482230
v -0.477273 0.529319 -0.482230
v -0.477273 0.529319 0.477668
v 0.478137 0.597094 0.477668
v 0.478137 0.597094 -0.482230
v -0.477273 0.597094 -0.482230
v -0.477273 0.597094 0.477668
v -0.500000 0.500000 -0.518868
v 0.500000 0.500000 -0.518868
v -0.500000 0.529319 -0.518868
v 0.500000 0.529319 -0.518868
v -0.500000 0.500000 0.518554
v 0.500000 0.500000 0.518554
v 0.500000 0.529319 0.518554
v -0.500000 0.529319 0.518554
v 0.516639 0.500000 0.500000
v 0.516639 0.500000 -0.500000
v 0.516639 0.529319 -0.500000
v 0.516639 0.529319 0.500000
v 0.516639 0.500000 -0.518868
v 0.516639 0.529319 -0.518868
v 0.516639 0.529319 0.518554
v 0.516639 0.500000 0.518554
v -0.521776 0.500000 0.500000
v -0.521776 0.500000 -0.500000
v -0.521776 0.529319 0.500000
v -0.521776 0.529319 -0.500000
v -0.521776 0.529319 -0.518868
v -0.521776 0.500000 -0.518868
v -0.521776 0.500000 0.518554
v -0.521776 0.529319 0.518554
vt 0.376978 0.008121
vt 0.622944 0.008121
vt 0.376978 0.254087
vt 0.622944 0.254087
vt 0.376978 0.500052
vt 0.622944 0.500052
vt 0.376978 0.746018
vt 0.622944 0.746018
vt 0.376978 0.991984
vt 0.622944 0.991984
vt 0.868910 0.008121
vt 0.868910 0.254087
vt 0.131012 0.008121
vt 0.131012 0.254087
vt 0.622944 0.500052
vt 0.131012 0.254087
vt 0.131012 0.254087
vt 0.622944 0.500052
vt 0.376978 0.254087
vt 0.622944 0.254087
vt 0.622944 0.254087
vt 0.376978 0.254087
vt 0.622944 0.254087
vt 0.622944 0.500052
vt 0.622944 0.500052
vt 0.622944 0.254087
vt 0.622944 0.500052
vt 0.622944 0.500052
vt 0.622944 0.254087
vt 0.622944 0.254087
vt 0.131012 0.254087
vt 0.376978 0.254087
vt 0.376978 0.254087
vt 0.131012 0.254087
vt 0.131012 0.254087
vt 0.131012 0.254087
vt 0.376978 0.254087
vt 0.376978 0.254087
vt 0.884974 0.115417
vt 0.884974 0.888361
vt 0.115644 0.888361
vt 0.115644 0.115417
vt 0.115644 0.888361
vt 0.884974 0.888361
vt 0.902578 0.998373
vt 0.097344 0.998373
vt 0.984472 0.902670
vt 0.984472 0.998373
vt 0.010694 0.998373
vt 0.010694 0.902670
vt 0.884974 0.115417
vt 0.984472 0.097435
vt 0.115644 0.115417
vt 0.010694 0.097435
vt 0.902578 0.014510
vt 0.984472 0.014510
vt 0.097344 0.014510
vt 0.010694 0.014510
vt 0.940184 0.115719
vt 0.938841 0.888662
vt 0.884265 0.888567
vt 0.885608 0.115625
vt 0.116388 0.885031
vt 0.115686 0.112087
vt 0.061111 0.112137
vt 0.061813 0.885080
vt 0.115536 0.940500
vt 0.884859 0.943639
vt 0.885082 0.889064
vt 0.115759 0.885925
vt 0.115644 0.061313
vt 0.884974 0.061313
vt 0.884974 0.115888
vt 0.115644 0.115888
vn 0.000000 0.000000 1.000000
vn 0.000000 0.000000 1.000000
vn 0.000000 0.000000 1.000000
vn 0.000000 0.000000 1.000000
vn 0.000000 0.000000 -1.000000
vn 0.000000 0.000000 -1.000000
vn 0.000000 0.000000 -1.000000
vn 0.000000 0.000000 -1.000000
vn 0.000000 -1.000000 0.000000
vn 0.000000 -1.000000 0.000000
vn 0.000000 -1.000000 0.000000
vn 0.000000 -1.000000 0.000000
vn 1.000000 0.000000 0.000000
vn 1.000000 0.000000 0.000000
vn 1.000000 0.000000 0.000000
vn 1.000000 0.000000 0.000000
vn -1.000000 0.000000 0.000000
vn -1.000000 0.000000 0.000000
vn -1.000000 0.000000 0.000000
vn -1.000000 0.000000 0.000000
vn 0.000000 1.000000 0.000000
vn 0.000000 1.000000 0.000000
vn 0.000000 1.000000 0.000000
vn 0.000000 1.000000 0.000000
vn 1.000000 0.000000 0.000000
vn 1.000000 0.000000 0.000000
vn 1.000000 0.000000 0.000000
vn 1.000000 0.000000 0.000000
vn 0.000000 0.000000 -1.000000
vn 0.000000 0.000000 -1.000000
vn 0.000000 0.000000 -1.000000
vn 0.000000 0.000000 -1.000000
vn -1.000000 0.000000 0.000000
vn -1.000000 0.000000 0.000000
vn -1.000000 0.000000 0.000000
vn -1.000000 0.000000 0.000000
vn 0.000000 0.000000 1.000000
vn 0.000000 0.000000 1.000000
vn 0.000000 0.000000 1.000000
vn 0.000000 0.000000 1.000000
vn 1.000000 0.000000 0.000000
vn 1.000000 0.000000 0.000000
vn 1.000000 0.000000 0.000000
vn 1.000000 0.000000 0.000000
vn 0.000000 0.000000 -1.000000
vn 0.000000 0.000000 -1.000000
vn 0.000000 0.000000 -1.000000
vn 0.000000 0.000000 -1.000000
vn -1.000000 0.000000 0.000000
vn -1.000000 0.000000 0.000000
vn -1.000000 0.000000 0.000000
vn -1.000000 0.000000 0.000000
vn 0.000000 0.000000 1.000000
vn 0.000000 0.000000 1.000000
vn 0.000000 0.000000 1.000000
vn 0.000000 0.000000 1.000000
vn 0.000000 -1.000000 0.000000
vn 0.000000 -1.000000 0.000000
vn 0.000000 -1.000000 0.000000
vn 0.000000 -1.000000 0.000000
vn -1.000000 0.000000 0.000000
vn -1.000000 0.000000 0.000000
vn 0.000000 1.000000 0.000000
vn 0.000000 1.000000 0.000000
vn 0.000000 1.000000 0.000000
vn 0.000000 1.000000 0.000001
vn 1.000000 0.000000 0.000000
vn 1.000000 0.000000 0.000000
vn 0.000000 -1.000000 0.000000
vn 0.000000 -1.000000 0.000000
vn 0.000000 -1.000000 0.000000
vn 0.000000 -1.000000 0.000000
vn 1.000000 0.000000 0.000000
vn 1.000000 0.000000 0.000000
vn 0.000000 1.000000 0.000000
vn 0.000000 1.000000 0.000000
vn 0.000000 1.000000 0.000000
vn 0.000000 1.000000 0.000000
vn -1.000000 0.000000 0.000000
vn -1.000000 0.000000 0.000000
vn 0.000000 -1.000000 0.000000
vn 0.000000 -1.000000 0.000000
vn 0.000000 1.000000 0.000000
vn 0.000000 1.000000 0.000000
vn 0.000000 -1.000000 0.000000
vn 0.000000 0.000000 -1.000000
vn 0.000000 0.000000 -1.000000
vn 0.000000 1.000000 0.000000
vn 0.000000 1.000000 0.000000
vn 0.000000 0.000000 1.000000
vn 0.000000 0.000000 1.000000
vn 0.000000 -1.000000 0.000000
vn 0.000000 -1.000000 0.000000
vn 0.000000 -1.000000 0.000000
vn 0.000000 1.000000 0.000000
vn 0.000000 1.000000 -0.000000
vn 0.000000 1.000000 0.000002
vn 0.000000 0.000000 -1.000000
vn 0.000000 0.000000 -1.000000
vn 0.000000 -1.000000 0.000000
vn 0.000000 -1.000000 0.000000
vn 0.000000 0.000000 1.000000
vn 0.000000 0.000000 1.000000
vn 0.000000 1.000000 -0.000001
s off
g space_button
usemtl initialShadingGroup
f 1/1/1 2/2/2 4/4/3 3/3/4
f 5/5/5 6/6/6 8/8/7 7/7/8
f 7/7/9 8/8/10 2/10/11 1/9/12
f 2/2/13 8/11/14 6/12/15 4/4/16
f 7/13/17 1/1/18 3/3/19 5/14/20
f 13/39/21 14/40/22 15/41/23 16/42/24
s 1
f 25/23/25 26/24/26 27/25/27 28/26/28
s 2
f 18/15/29 17/16/30 19/17/31 20/18/32
s 3
f 34/31/33 33/32/34 35/33/35 36/34/36
s 4
f 21/19/37 22/20/38 23/21/39 24/22/40
s off
f 9/59/41 10/60/42 14/61/43 13/62/44
f 10/67/45 11/68/46 15/69/47 14/70/48
f 11/63/49 12/64/50 16/65/51 15/66/52
f 12/71/53 9/72/54 13/73/55 16/74/56
s 5
f 6/6/57 5/14/58 17/16/59 18/15/60
s 3
f 34/31/33 36/34/36 37/35/61 38/36/62
s 6
f 11/43/63 10/44/64 20/45/65 19/46/66
s 1
f 27/25/27 26/24/26 29/27/67 30/28/68
s 5
f 3/3/69 4/4/70 22/20/71 21/19/72
s 1
f 25/23/25 28/26/28 31/29/73 32/30/74
s 6
f 9/51/75 12/53/76 24/57/77 23/55/78
s 3
f 35/33/35 33/32/34 39/37/79 40/38/80
s 5
f 4/4/70 6/6/57 26/24/81 25/23/82
s 6
f 10/44/64 9/51/75 28/52/83 27/47/84
s 5
f 6/6/57 18/15/60 29/27/85 26/24/81
s 2
f 18/15/29 20/18/32 30/28/86 29/27/87
s 6
f 20/45/65 10/44/64 27/47/84 30/48/88
f 9/51/75 23/55/78 31/56/89 28/52/83
s 4
f 23/21/39 22/20/38 32/30/90 31/29/91
s 5
f 22/20/71 4/4/70 25/23/82 32/30/92
f 5/14/58 3/3/69 33/32/93 34/31/94
s 6
f 12/53/76 11/43/63 36/50/95 35/54/96
f 11/43/63 19/46/66 37/49/97 36/50/95
s 2
f 19/17/31 17/16/30 38/36/98 37/35/99
s 5
f 17/16/59 5/14/58 34/31/94 38/36/100
f 3/3/69 21/19/72 39/37/101 33/32/93
s 4
f 21/19/37 24/22/40 40/38/102 39/37/103
s 6
f 24/57/77 12/53/76 35/54/96 40/58/104
