# Blender v2.79 (sub 6) OBJ File: 'cave_cycleR_export_disp.blend'
# www.blender.org
mtllib cave_ground_gate_left.mtl
o GroundGate_Left_Cube.005
v 7.507322 0.982808 -1.914151
v 7.507322 1.410199 -1.914151
v 7.507322 0.982808 0.085849
v 7.507322 1.410199 0.085849
v 9.625578 0.982808 -1.914151
v 9.625578 1.410199 -1.914151
v 9.625578 0.982808 0.085849
v 9.625578 1.410199 0.085849
v 5.937394 0.982808 0.085849
v 5.937394 0.982808 -1.914151
v 5.863840 1.383981 -1.914151
v 5.863840 1.383981 0.085849
v 11.195506 1.340286 0.085849
v 11.195506 0.982808 0.085849
v 11.195506 0.982808 -1.914151
v 11.195506 1.368088 -1.914151
v 7.507322 0.982808 -2.834263
v 7.507322 1.410199 -2.834263
v 9.625578 1.410199 -2.834263
v 9.625578 0.982808 -2.834263
v 5.937394 0.982808 -2.834263
v 5.863840 1.383981 -2.834263
v 11.195506 1.327846 -2.834263
v 11.195506 0.982808 -2.834263
vt 0.796827 0.199167
vt 0.809290 0.000000
vt 1.000000 0.008914
vt 1.000000 0.199167
vt 1.000000 0.455870
vt 0.796827 0.455870
vt 0.390482 0.190253
vt 0.390482 0.000000
vt 0.593654 0.000000
vt 0.593654 0.190253
vt 0.390482 0.446956
vt 0.297011 0.446956
vt 0.297011 0.190253
vt 0.593654 0.446956
vt 0.000000 0.191694
vt 0.203159 0.191694
vt 0.203241 0.448256
vt 0.000081 0.448256
vt 0.487866 0.748714
vt 0.487866 0.991086
vt 0.297011 0.991086
vt 0.297011 0.748714
vt 0.776808 0.646123
vt 0.776808 0.888495
vt 0.593654 0.888495
vt 0.606871 0.646123
vt 0.297011 0.000000
vt 0.000319 0.000233
vt 0.203328 0.000755
vt 1.000000 0.646123
vt 0.830062 0.646123
vt 0.203446 0.646823
vt 0.000286 0.646823
vt 0.593654 0.637209
vt 0.390482 0.637209
vt 0.297011 0.637209
vt 0.796827 0.190253
vt 0.796827 0.446956
vt 0.593654 0.446956
vt 0.593654 0.190253
vt 0.796827 0.637210
vt 0.606118 0.646123
vt 0.632803 0.000000
vt 0.796827 0.000000
vt 0.776808 1.000000
vt 0.612785 1.000000
vt 0.297011 0.000000
vt 0.296624 0.191694
vt 0.296705 0.448256
vt 0.296911 0.646823
vt 0.297011 0.637209
vt 0.487866 0.637209
vn -0.0000 0.0000 1.0000
vn 0.0000 -1.0000 0.0000
vn 0.0000 1.0000 0.0000
vn -0.9836 -0.1803 0.0000
vn 1.0000 0.0000 0.0000
vn 0.0357 0.9993 0.0069
vn -0.0160 0.9999 0.0000
vn 0.0000 0.0000 -1.0000
vn 0.0396 0.9990 -0.0218
usemtl cave_ground_gate_left
s off
f 4/1/1 12/2/1 9/3/1 3/4/1
f 3/4/1 7/5/1 8/6/1 4/1/1
f 5/7/2 15/8/2 14/9/2 7/10/2
f 1/11/2 17/12/2 20/13/2 5/7/2
f 3/14/2 1/11/2 5/7/2 7/10/2
f 8/15/3 6/16/3 2/17/3 4/18/3
f 10/19/4 9/20/4 12/21/4 11/22/4
f 14/23/5 15/24/5 16/25/5 13/26/5
f 5/7/2 20/13/2 24/27/2 15/8/2
f 8/15/6 13/28/6 16/29/6 6/16/6
f 7/5/1 14/30/1 13/31/1 8/6/1
f 2/17/7 11/32/7 12/33/7 4/18/7
f 3/14/2 9/34/2 10/35/2 1/11/2
f 10/35/2 21/36/2 17/12/2 1/11/2
f 20/37/8 17/38/8 18/39/8 19/40/8
f 17/38/8 21/41/8 22/42/8 18/39/8
f 19/40/8 23/43/8 24/44/8 20/37/8
f 15/24/5 24/45/5 23/46/5 16/25/5
f 16/29/9 23/47/9 19/48/9 6/16/9
f 2/17/7 18/49/7 22/50/7 11/32/7
f 11/22/4 22/51/4 21/52/4 10/19/4
f 6/16/3 19/48/3 18/49/3 2/17/3
